<?xml version="1.0" encoding="UTF-8"?>
<svg id="Ebene_2" data-name="Ebene 2" xmlns="http://www.w3.org/2000/svg" viewBox="0 0 16.09 16.09">
  <g id="Ebene_2-2" data-name="Ebene 2">
    <g>
      <g>
        <rect x="2.3" y="2.3" width="2.3" height="2.3"/>
        <rect width="2.3" height="2.3"/>
        <rect x="4.6" y="4.6" width="2.3" height="2.3"/>
        <rect x="6.9" y="6.9" width="2.3" height="2.3"/>
        <rect x="9.19" y="9.19" width="2.3" height="2.3"/>
        <rect x="11.49" y="11.49" width="2.3" height="2.3"/>
        <rect x="13.79" y="13.79" width="2.3" height="2.3"/>
      </g>
      <g>
        <rect x="2.3" y="11.49" width="2.3" height="2.3" transform="translate(-9.19 16.09) rotate(-90)"/>
        <rect y="13.79" width="2.3" height="2.3" transform="translate(-13.79 16.09) rotate(-90)"/>
        <rect x="4.6" y="9.19" width="2.3" height="2.3" transform="translate(-4.6 16.09) rotate(-90)"/>
        <rect x="6.9" y="6.9" width="2.3" height="2.3" transform="translate(0 16.09) rotate(-90)"/>
        <rect x="9.19" y="4.6" width="2.3" height="2.3" transform="translate(4.6 16.09) rotate(-90)"/>
        <rect x="11.49" y="2.3" width="2.3" height="2.3" transform="translate(9.19 16.09) rotate(-90)"/>
        <rect x="13.79" width="2.3" height="2.3" transform="translate(13.79 16.09) rotate(-90)"/>
      </g>
    </g>
  </g>
</svg>